<svg xmlns="http://www.w3.org/2000/svg" viewBox="0 0 804.3 199.8">
<style type="text/css">
	.st1{fill:#00C1D4;}
	.st2{fill:#FF8015;}
	.st3{fill:#005E73;}
</style>
<g id="text">
	<g>
		<path class="st1" d="M331.3,198.4c-2.1-0.8-3.7-2.1-5-3.8c-1.2-1.7-1.9-3.7-2-6h9.3c0.1,1.3,0.6,2.3,1.4,3c0.8,0.7,1.8,1,3.1,1
			c1.3,0,2.3-0.3,3.1-0.9c0.8-0.6,1.1-1.4,1.1-2.5c0-0.9-0.3-1.6-0.9-2.2c-0.6-0.6-1.3-1-2.2-1.4c-0.9-0.4-2.1-0.8-3.7-1.3
			c-2.3-0.7-4.2-1.4-5.7-2.1c-1.5-0.7-2.7-1.8-3.8-3.1c-1.1-1.4-1.6-3.2-1.6-5.4c0-3.3,1.2-5.9,3.6-7.8c2.4-1.9,5.6-2.8,9.5-2.8
			c4,0,7.2,0.9,9.6,2.8c2.4,1.9,3.7,4.5,3.9,7.8h-9.5c-0.1-1.2-0.5-2.1-1.3-2.7c-0.8-0.7-1.8-1-3-1c-1.1,0-1.9,0.3-2.6,0.8
			c-0.6,0.6-1,1.4-1,2.4c0,1.2,0.5,2,1.6,2.7c1.1,0.6,2.8,1.3,5.1,2.1c2.3,0.8,4.2,1.5,5.7,2.2c1.5,0.7,2.7,1.7,3.8,3.1
			c1.1,1.4,1.6,3.1,1.6,5.2c0,2-0.5,3.9-1.6,5.5c-1,1.7-2.6,3-4.5,4c-2,1-4.3,1.5-7,1.5C335.7,199.7,333.3,199.3,331.3,198.4z"/>
		<path class="st1" d="M380.5,163.7v7H371v28.7h-8.8v-28.7h-9.5v-7H380.5z"/>
		<path class="st1" d="M405.1,193.1h-13.4l-2.2,6.3h-9.2l13-35.6h10.1l13,35.6h-9.3L405.1,193.1z M402.8,186.4l-4.5-13l-4.4,13
			H402.8z"/>
		<path class="st1" d="M436.6,199.4l-7.5-13.5H427v13.5h-8.8v-35.6h14.7c2.8,0,5.3,0.5,7.2,1.5c2,1,3.5,2.3,4.5,4
			c1,1.7,1.5,3.6,1.5,5.7c0,2.4-0.7,4.5-2,6.3c-1.3,1.9-3.3,3.2-6,4l8.3,14.1H436.6z M427,179.8h5.4c1.6,0,2.8-0.4,3.6-1.2
			c0.8-0.8,1.2-1.9,1.2-3.3c0-1.4-0.4-2.4-1.2-3.2c-0.8-0.8-2-1.2-3.6-1.2H427V179.8z"/>
		<path class="st1" d="M475.3,163.7v7h-9.5v28.7H457v-28.7h-9.5v-7H475.3z"/>
		<path class="st1" d="M486.1,163.7V185c0,2.1,0.5,3.8,1.6,4.9s2.6,1.7,4.7,1.7s3.6-0.6,4.7-1.7c1.1-1.2,1.6-2.8,1.6-4.9v-21.3h8.8
			V185c0,3.2-0.7,5.9-2,8.1c-1.4,2.2-3.2,3.9-5.5,5c-2.3,1.1-4.9,1.7-7.7,1.7c-2.8,0-5.4-0.6-7.6-1.7c-2.2-1.1-4-2.8-5.3-5
			c-1.3-2.2-1.9-4.9-1.9-8.1v-21.3H486.1z"/>
		<path class="st1" d="M537.4,180.9c-1,1.7-2.4,3.1-4.4,4.1s-4.4,1.6-7.4,1.6h-5.4v12.8h-8.8v-35.6h14.2c2.9,0,5.3,0.5,7.3,1.5
			c2,1,3.5,2.3,4.5,4.1c1,1.7,1.5,3.7,1.5,5.9C538.8,177.3,538.3,179.1,537.4,180.9z M528.7,178.5c0.8-0.8,1.2-1.9,1.2-3.3
			c0-1.4-0.4-2.5-1.2-3.3c-0.8-0.8-2.1-1.2-3.7-1.2h-4.8v8.9h4.8C526.6,179.7,527.9,179.3,528.7,178.5z"/>
	</g>
	<g>
		<path class="st2" d="M546.5,167.7v11.8h13v3.8h-13v12.2H561v3.8h-19.2v-35.4H561v3.8H546.5z"/>
		<path class="st2" d="M594,199.4h-4.7l-18.7-28.2v28.2h-4.7v-35.4h4.7l18.7,28.1v-28.1h4.7V199.4z"/>
		<path class="st2" d="M626.8,174.2c-1-2.1-2.4-3.7-4.3-4.8c-1.9-1.1-4.1-1.7-6.6-1.7c-2.5,0-4.7,0.6-6.7,1.7
			c-2,1.1-3.6,2.8-4.7,4.9c-1.1,2.1-1.7,4.6-1.7,7.3c0,2.8,0.6,5.2,1.7,7.3c1.1,2.1,2.7,3.7,4.7,4.8c2,1.1,4.2,1.7,6.7,1.7
			c3.5,0,6.4-1,8.6-3.1c2.3-2.1,3.6-4.9,3.9-8.4h-14.2v-3.8h19.2v3.6c-0.3,2.9-1.2,5.6-2.8,8c-1.6,2.4-3.6,4.3-6.2,5.7
			c-2.6,1.4-5.4,2.1-8.6,2.1c-3.3,0-6.3-0.8-9.1-2.3c-2.7-1.5-4.9-3.7-6.5-6.4s-2.4-5.8-2.4-9.3s0.8-6.6,2.4-9.3
			c1.6-2.8,3.7-4.9,6.5-6.4c2.7-1.5,5.8-2.3,9.1-2.3c3.8,0,7.1,0.9,10.1,2.8c2.9,1.9,5,4.5,6.4,7.9H626.8z"/>
		<path class="st2" d="M642,164v35.4h-4.7V164H642z"/>
		<path class="st2" d="M675.8,199.4h-4.7l-18.7-28.2v28.2h-4.7v-35.4h4.7l18.7,28.1v-28.1h4.7V199.4z"/>
		<path class="st2" d="M686.2,167.7v11.8h13v3.8h-13v12.2h14.5v3.8h-19.2v-35.4h19.2v3.8H686.2z"/>
		<path class="st2" d="M710.3,167.7v11.8h13v3.8h-13v12.2h14.5v3.8h-19.2v-35.4h19.2v3.8H710.3z"/>
		<path class="st2" d="M748.5,199.4l-8.5-14.5h-5.6v14.5h-4.7V164h11.5c2.7,0,5,0.5,6.8,1.4c1.9,0.9,3.3,2.1,4.2,3.7
			c0.9,1.6,1.4,3.3,1.4,5.3c0,2.4-0.7,4.6-2.1,6.4c-1.4,1.9-3.5,3.1-6.4,3.7l9,14.8H748.5z M734.4,181.2h6.9c2.5,0,4.4-0.6,5.7-1.9
			c1.3-1.2,1.9-2.9,1.9-4.9c0-2.1-0.6-3.7-1.9-4.9c-1.2-1.2-3.2-1.7-5.7-1.7h-6.9V181.2z"/>
		<path class="st2" d="M757.9,198.7c-0.6-0.6-0.9-1.4-0.9-2.2c0-0.9,0.3-1.6,0.9-2.2c0.6-0.6,1.4-0.9,2.3-0.9c0.9,0,1.6,0.3,2.2,0.9
			s0.9,1.4,0.9,2.2c0,0.9-0.3,1.6-0.9,2.2s-1.3,0.9-2.2,0.9C759.3,199.7,758.5,199.4,757.9,198.7z"/>
		<path class="st2" d="M767.4,166.1c-0.6-0.6-0.9-1.4-0.9-2.2c0-0.9,0.3-1.6,0.9-2.2c0.6-0.6,1.4-0.9,2.3-0.9c0.9,0,1.6,0.3,2.2,0.9
			s0.9,1.4,0.9,2.2c0,0.9-0.3,1.6-0.9,2.2s-1.3,0.9-2.2,0.9C768.7,167,768,166.7,767.4,166.1z M771.9,171.5v27.8h-4.7v-27.8H771.9z"
			/>
		<path class="st2" d="M782.7,198c-2.1-1.2-3.8-2.9-5-5.1c-1.2-2.2-1.8-4.7-1.8-7.6c0-2.8,0.6-5.4,1.9-7.5c1.2-2.2,2.9-3.9,5.1-5
			c2.2-1.2,4.6-1.8,7.2-1.8s5.1,0.6,7.2,1.8s3.9,2.8,5.1,5c1.2,2.2,1.9,4.7,1.9,7.6c0,2.9-0.6,5.4-1.9,7.6c-1.3,2.2-3,3.9-5.2,5.1
			c-2.2,1.2-4.6,1.8-7.3,1.8C787.2,199.8,784.9,199.2,782.7,198z M794.6,194.6c1.5-0.8,2.7-1.9,3.6-3.5c0.9-1.6,1.4-3.5,1.4-5.7
			c0-2.2-0.4-4.1-1.3-5.7c-0.9-1.6-2-2.7-3.5-3.5c-1.4-0.8-3-1.1-4.7-1.1c-1.7,0-3.3,0.4-4.7,1.1c-1.4,0.8-2.6,1.9-3.4,3.5
			c-0.9,1.6-1.3,3.5-1.3,5.7c0,2.3,0.4,4.2,1.3,5.7c0.8,1.6,2,2.7,3.4,3.5c1.4,0.8,2.9,1.1,4.6,1.1S793.1,195.4,794.6,194.6z"/>
	</g>
	<g id="middle">
		<g>
			<path class="st3" d="M329.6,59.1v35.4H325V59.1H329.6z"/>
			<path class="st3" d="M357.3,69.3c2.1,2,3.2,5,3.2,8.9v16.4h-4.6V78.8c0-2.8-0.7-4.9-2.1-6.4c-1.4-1.5-3.3-2.2-5.7-2.2
				c-2.5,0-4.4,0.8-5.9,2.3c-1.5,1.5-2.2,3.7-2.2,6.6v15.4h-4.7V66.7h4.7v4c0.9-1.4,2.2-2.5,3.8-3.3c1.6-0.8,3.3-1.2,5.3-1.2
				C352.5,66.2,355.2,67.2,357.3,69.3z"/>
			<path class="st3" d="M370.1,93.9c-1.7-0.7-3.1-1.7-4-3c-1-1.3-1.5-2.8-1.6-4.5h4.8c0.1,1.4,0.8,2.5,2,3.4
				c1.2,0.9,2.7,1.3,4.6,1.3c1.8,0,3.2-0.4,4.2-1.2c1-0.8,1.5-1.8,1.5-2.9c0-1.2-0.5-2.1-1.6-2.7c-1.1-0.6-2.8-1.2-5.1-1.8
				c-2.1-0.5-3.8-1.1-5.1-1.6c-1.3-0.6-2.4-1.4-3.4-2.5c-0.9-1.1-1.4-2.5-1.4-4.3c0-1.4,0.4-2.7,1.3-3.9c0.9-1.2,2.1-2.1,3.6-2.8
				c1.6-0.7,3.4-1,5.4-1c3.1,0,5.6,0.8,7.5,2.3c1.9,1.6,2.9,3.7,3.1,6.4h-4.7c-0.1-1.5-0.7-2.6-1.8-3.5c-1.1-0.9-2.5-1.3-4.3-1.3
				c-1.7,0-3,0.4-4,1.1c-1,0.7-1.5,1.6-1.5,2.8c0,0.9,0.3,1.7,0.9,2.3c0.6,0.6,1.3,1.1,2.3,1.4c0.9,0.4,2.2,0.8,3.8,1.2
				c2,0.5,3.7,1.1,4.9,1.6c1.3,0.5,2.3,1.3,3.3,2.4c0.9,1,1.4,2.4,1.4,4.1c0,1.5-0.4,2.9-1.3,4.1c-0.9,1.2-2.1,2.2-3.6,2.9
				c-1.6,0.7-3.3,1-5.4,1C373.7,95,371.8,94.6,370.1,93.9z"/>
			<path class="st3" d="M396.2,70.5v16.4c0,1.4,0.3,2.3,0.9,2.9c0.6,0.6,1.6,0.8,3,0.8h3.4v3.9h-4.2c-2.6,0-4.5-0.6-5.8-1.8
				c-1.3-1.2-1.9-3.1-1.9-5.8V70.5h-3.6v-3.8h3.6v-7h4.7v7h7.3v3.8H396.2z"/>
			<path class="st3" d="M407.1,61.3c-0.6-0.6-0.9-1.4-0.9-2.2c0-0.9,0.3-1.6,0.9-2.2c0.6-0.6,1.4-0.9,2.3-0.9c0.9,0,1.6,0.3,2.2,0.9
				c0.6,0.6,0.9,1.4,0.9,2.2c0,0.9-0.3,1.6-0.9,2.2c-0.6,0.6-1.3,0.9-2.2,0.9C408.5,62.2,407.7,61.9,407.1,61.3z M411.6,66.7v27.8
				h-4.7V66.7H411.6z"/>
			<path class="st3" d="M423,70.5v16.4c0,1.4,0.3,2.3,0.9,2.9c0.6,0.6,1.6,0.8,3,0.8h3.4v3.9h-4.2c-2.6,0-4.5-0.6-5.8-1.8
				s-1.9-3.1-1.9-5.8V70.5h-3.6v-3.8h3.6v-7h4.7v7h7.3v3.8H423z"/>
			<path class="st3" d="M458.7,66.7v27.8H454v-4.1c-0.9,1.4-2.1,2.5-3.7,3.3c-1.6,0.8-3.3,1.2-5.3,1.2c-2.2,0-4.1-0.4-5.9-1.3
				c-1.7-0.9-3.1-2.2-4.1-4c-1-1.8-1.5-4-1.5-6.5V66.7h4.6v15.7c0,2.7,0.7,4.8,2.1,6.3c1.4,1.5,3.3,2.2,5.7,2.2
				c2.5,0,4.5-0.8,5.9-2.3s2.2-3.7,2.2-6.6V66.7H458.7z"/>
			<path class="st3" d="M470,70.5v16.4c0,1.4,0.3,2.3,0.9,2.9c0.6,0.6,1.6,0.8,3,0.8h3.4v3.9h-4.2c-2.6,0-4.5-0.6-5.8-1.8
				s-1.9-3.1-1.9-5.8V70.5h-3.6v-3.8h3.6v-7h4.7v7h7.3v3.8H470z"/>
			<path class="st3" d="M506.3,82.3h-22.4c0.2,2.7,1.1,4.9,2.8,6.4c1.7,1.5,3.8,2.3,6.3,2.3c2,0,3.7-0.5,5-1.4
				c1.3-0.9,2.3-2.2,2.8-3.7h5c-0.8,2.7-2.3,4.8-4.5,6.5c-2.3,1.7-5.1,2.5-8.4,2.5c-2.7,0-5-0.6-7.1-1.8c-2.1-1.2-3.7-2.9-4.9-5.1
				c-1.2-2.2-1.8-4.7-1.8-7.6c0-2.9,0.6-5.4,1.7-7.6c1.2-2.2,2.8-3.8,4.9-5s4.5-1.8,7.2-1.8c2.7,0,5,0.6,7.1,1.7
				c2,1.2,3.6,2.7,4.7,4.7c1.1,2,1.7,4.3,1.7,6.8C506.4,80.4,506.4,81.4,506.3,82.3z M500.4,74c-0.8-1.3-1.9-2.2-3.2-2.9
				c-1.3-0.7-2.8-1-4.5-1c-2.4,0-4.4,0.7-6,2.2c-1.7,1.5-2.6,3.6-2.8,6.2h17.7C501.6,76.8,501.2,75.3,500.4,74z"/>
			<path class="st3" d="M526.9,93.2c-2.1-1.2-3.8-2.9-5-5.1c-1.2-2.2-1.8-4.7-1.8-7.6c0-2.8,0.6-5.4,1.9-7.5s2.9-3.9,5.1-5
				c2.2-1.2,4.6-1.8,7.2-1.8s5.1,0.6,7.2,1.8s3.9,2.8,5.1,5c1.2,2.2,1.9,4.7,1.9,7.6c0,2.9-0.6,5.4-1.9,7.6c-1.3,2.2-3,3.9-5.2,5.1
				c-2.2,1.2-4.6,1.8-7.3,1.8C531.4,95,529.1,94.4,526.9,93.2z M538.8,89.8c1.5-0.8,2.7-1.9,3.6-3.5c0.9-1.6,1.4-3.5,1.4-5.7
				s-0.4-4.1-1.3-5.7c-0.9-1.6-2-2.7-3.5-3.5c-1.4-0.8-3-1.1-4.7-1.1c-1.7,0-3.3,0.4-4.7,1.1c-1.4,0.8-2.6,1.9-3.4,3.5
				c-0.9,1.6-1.3,3.5-1.3,5.7c0,2.3,0.4,4.2,1.3,5.7c0.8,1.6,2,2.7,3.4,3.5c1.4,0.8,2.9,1.1,4.6,1.1S537.3,90.5,538.8,89.8z"/>
			<path class="st3" d="M563.8,70.5H558v24h-4.7v-24h-3.6v-3.8h3.6v-2c0-3.1,0.8-5.4,2.4-6.8c1.6-1.4,4.2-2.2,7.8-2.2v3.9
				c-2,0-3.5,0.4-4.3,1.2c-0.8,0.8-1.3,2.1-1.3,3.9v2h5.9V70.5z"/>
		</g>
		<g>
			<path class="st3" d="M329,108.6v11.8h13v3.8h-13v12.2h14.5v3.8h-19.2v-35.4h19.2v3.8H329z"/>
			<path class="st3" d="M370.4,115c2.1,2,3.2,5,3.2,8.9v16.4h-4.6v-15.7c0-2.8-0.7-4.9-2.1-6.4c-1.4-1.5-3.3-2.2-5.7-2.2
				c-2.5,0-4.4,0.8-5.9,2.3c-1.5,1.5-2.2,3.7-2.2,6.6v15.4h-4.7v-27.8h4.7v4c0.9-1.4,2.2-2.5,3.8-3.3c1.6-0.8,3.3-1.2,5.3-1.2
				C365.5,111.9,368.3,112.9,370.4,115z"/>
			<path class="st3" d="M384.7,116.2v16.4c0,1.4,0.3,2.3,0.9,2.9c0.6,0.6,1.6,0.8,3,0.8h3.4v3.9h-4.2c-2.6,0-4.5-0.6-5.8-1.8
				c-1.3-1.2-1.9-3.1-1.9-5.8v-16.4h-3.6v-3.8h3.6v-7h4.7v7h7.3v3.8H384.7z"/>
			<path class="st3" d="M403.6,113.2c1.5-0.9,3.4-1.3,5.6-1.3v4.8h-1.2c-5.2,0-7.8,2.8-7.8,8.4v15.1h-4.7v-27.8h4.7v4.5
				C400.9,115.3,402.1,114.1,403.6,113.2z"/>
			<path class="st3" d="M437.8,128.1h-22.4c0.2,2.7,1.1,4.9,2.8,6.4s3.8,2.3,6.3,2.3c2,0,3.7-0.5,5-1.4c1.3-0.9,2.3-2.2,2.8-3.7h5
				c-0.8,2.7-2.3,4.8-4.5,6.5c-2.3,1.7-5.1,2.5-8.4,2.5c-2.7,0-5-0.6-7.1-1.8c-2.1-1.2-3.7-2.9-4.9-5.1s-1.8-4.7-1.8-7.6
				c0-2.9,0.6-5.4,1.7-7.6c1.2-2.2,2.8-3.8,4.9-5c2.1-1.2,4.5-1.8,7.2-1.8c2.7,0,5,0.6,7.1,1.7c2,1.2,3.6,2.7,4.7,4.7
				c1.1,2,1.7,4.3,1.7,6.8C438,126.1,437.9,127.1,437.8,128.1z M432,119.8c-0.8-1.3-1.9-2.2-3.2-2.9s-2.8-1-4.5-1
				c-2.4,0-4.4,0.7-6,2.2c-1.7,1.5-2.6,3.6-2.8,6.2h17.7C433.1,122.5,432.7,121,432,119.8z"/>
			<path class="st3" d="M450.7,113.6c1.8-1.1,4-1.6,6.4-1.6c2.5,0,4.8,0.6,6.8,1.8c2,1.2,3.6,2.9,4.8,5c1.2,2.1,1.7,4.6,1.7,7.5
				c0,2.8-0.6,5.3-1.7,7.5c-1.2,2.2-2.8,3.9-4.8,5.1c-2,1.2-4.3,1.8-6.8,1.8c-2.4,0-4.5-0.5-6.3-1.6c-1.8-1.1-3.2-2.4-4.2-4v18.3
				h-4.7v-41h4.7v5.1C447.5,116,448.9,114.6,450.7,113.6z M464.3,120.7c-0.9-1.6-2-2.7-3.5-3.6c-1.5-0.8-3-1.2-4.8-1.2
				c-1.7,0-3.3,0.4-4.7,1.2c-1.5,0.8-2.6,2-3.5,3.6c-0.9,1.6-1.3,3.4-1.3,5.5c0,2.1,0.4,3.9,1.3,5.5c0.9,1.6,2,2.8,3.5,3.6
				c1.5,0.8,3,1.2,4.7,1.2c1.7,0,3.3-0.4,4.8-1.2c1.5-0.8,2.6-2,3.5-3.6c0.9-1.6,1.3-3.4,1.3-5.6
				C465.6,124.1,465.2,122.3,464.3,120.7z"/>
			<path class="st3" d="M482.5,113.2c1.5-0.9,3.4-1.3,5.6-1.3v4.8h-1.2c-5.2,0-7.8,2.8-7.8,8.4v15.1h-4.7v-27.8h4.7v4.5
				C479.8,115.3,481,114.1,482.5,113.2z"/>
			<path class="st3" d="M516.7,128.1h-22.4c0.2,2.7,1.1,4.9,2.8,6.4c1.7,1.5,3.8,2.3,6.3,2.3c2,0,3.7-0.5,5-1.4
				c1.3-0.9,2.3-2.2,2.8-3.7h5c-0.8,2.7-2.3,4.8-4.5,6.5c-2.3,1.7-5.1,2.5-8.4,2.5c-2.7,0-5-0.6-7.1-1.8c-2.1-1.2-3.7-2.9-4.9-5.1
				c-1.2-2.2-1.8-4.7-1.8-7.6c0-2.9,0.6-5.4,1.7-7.6s2.8-3.8,4.9-5s4.5-1.8,7.2-1.8c2.7,0,5,0.6,7.1,1.7c2,1.2,3.6,2.7,4.7,4.7
				s1.7,4.3,1.7,6.8C516.8,126.1,516.8,127.1,516.7,128.1z M510.8,119.8c-0.8-1.3-1.9-2.2-3.2-2.9c-1.3-0.7-2.8-1-4.5-1
				c-2.4,0-4.4,0.7-6,2.2c-1.7,1.5-2.6,3.6-2.8,6.2H512C512,122.5,511.6,121,510.8,119.8z"/>
			<path class="st3" d="M542.8,115c2.1,2,3.2,5,3.2,8.9v16.4h-4.6v-15.7c0-2.8-0.7-4.9-2.1-6.4s-3.3-2.2-5.7-2.2
				c-2.5,0-4.4,0.8-5.9,2.3c-1.5,1.5-2.2,3.7-2.2,6.6v15.4h-4.7v-27.8h4.7v4c0.9-1.4,2.2-2.5,3.8-3.3c1.6-0.8,3.3-1.2,5.3-1.2
				C537.9,111.9,540.6,112.9,542.8,115z"/>
			<path class="st3" d="M576.8,128.1h-22.4c0.2,2.7,1.1,4.9,2.8,6.4c1.7,1.5,3.8,2.3,6.3,2.3c2,0,3.7-0.5,5-1.4
				c1.3-0.9,2.3-2.2,2.8-3.7h5c-0.8,2.7-2.3,4.8-4.5,6.5c-2.3,1.7-5.1,2.5-8.4,2.5c-2.7,0-5-0.6-7.1-1.8c-2.1-1.2-3.7-2.9-4.9-5.1
				c-1.2-2.2-1.8-4.7-1.8-7.6c0-2.9,0.6-5.4,1.7-7.6c1.2-2.2,2.8-3.8,4.9-5c2.1-1.2,4.5-1.8,7.2-1.8c2.7,0,5,0.6,7.1,1.7
				s3.6,2.7,4.7,4.7c1.1,2,1.7,4.3,1.7,6.8C577,126.1,576.9,127.1,576.8,128.1z M571,119.8c-0.8-1.3-1.9-2.2-3.2-2.9
				c-1.3-0.7-2.8-1-4.5-1c-2.4,0-4.4,0.7-6,2.2c-1.7,1.5-2.6,3.6-2.8,6.2h17.7C572.2,122.5,571.8,121,571,119.8z"/>
			<path class="st3" d="M605.8,112.4v27.8h-4.7v-4.1c-0.9,1.4-2.1,2.5-3.7,3.3c-1.6,0.8-3.3,1.2-5.3,1.2c-2.2,0-4.1-0.4-5.9-1.3
				c-1.7-0.9-3.1-2.2-4.1-4c-1-1.8-1.5-4-1.5-6.5v-16.3h4.6v15.7c0,2.7,0.7,4.8,2.1,6.3s3.3,2.2,5.7,2.2c2.5,0,4.5-0.8,5.9-2.3
				c1.4-1.5,2.2-3.7,2.2-6.6v-15.3H605.8z"/>
			<path class="st3" d="M619.7,113.2c1.5-0.9,3.4-1.3,5.6-1.3v4.8H624c-5.2,0-7.8,2.8-7.8,8.4v15.1h-4.7v-27.8h4.7v4.5
				C617,115.3,618.2,114.1,619.7,113.2z"/>
			<path class="st3" d="M632.6,139.6c-1.7-0.7-3.1-1.7-4-3s-1.5-2.8-1.6-4.5h4.8c0.1,1.4,0.8,2.5,2,3.4c1.2,0.9,2.7,1.3,4.6,1.3
				c1.8,0,3.2-0.4,4.2-1.2c1-0.8,1.5-1.8,1.5-2.9c0-1.2-0.5-2.1-1.6-2.7c-1.1-0.6-2.8-1.2-5.1-1.8c-2.1-0.5-3.8-1.1-5.1-1.7
				c-1.3-0.6-2.4-1.4-3.4-2.5c-0.9-1.1-1.4-2.5-1.4-4.3c0-1.4,0.4-2.7,1.3-3.9s2.1-2.1,3.6-2.8c1.6-0.7,3.4-1,5.4-1
				c3.1,0,5.6,0.8,7.5,2.3s2.9,3.7,3.1,6.4h-4.7c-0.1-1.5-0.7-2.6-1.8-3.5c-1.1-0.9-2.5-1.3-4.3-1.3c-1.7,0-3,0.4-4,1.1
				c-1,0.7-1.5,1.6-1.5,2.8c0,0.9,0.3,1.7,0.9,2.3c0.6,0.6,1.3,1.1,2.3,1.4c0.9,0.4,2.2,0.8,3.8,1.2c2,0.5,3.7,1.1,4.9,1.6
				c1.3,0.5,2.3,1.3,3.3,2.4c0.9,1,1.4,2.4,1.4,4.1c0,1.5-0.4,2.9-1.3,4.1s-2.1,2.2-3.6,2.9c-1.6,0.7-3.3,1-5.4,1
				C636.2,140.7,634.3,140.3,632.6,139.6z"/>
			<path class="st3" d="M672.6,113.3c1.7,0.9,3,2.2,4,4c1,1.8,1.5,4,1.5,6.5v16.4h-4.6v-15.7c0-2.8-0.7-4.9-2.1-6.4
				c-1.4-1.5-3.3-2.2-5.7-2.2c-2.5,0-4.4,0.8-5.9,2.3c-1.5,1.5-2.2,3.7-2.2,6.6v15.4H653v-37.6h4.7v13.7c0.9-1.4,2.2-2.5,3.8-3.3
				c1.6-0.8,3.4-1.2,5.5-1.2C669,111.9,670.9,112.4,672.6,113.3z"/>
			<path class="st3" d="M683.7,107c-0.6-0.6-0.9-1.4-0.9-2.2s0.3-1.6,0.9-2.2c0.6-0.6,1.4-0.9,2.3-0.9c0.9,0,1.6,0.3,2.2,0.9
				c0.6,0.6,0.9,1.4,0.9,2.2s-0.3,1.6-0.9,2.2c-0.6,0.6-1.3,0.9-2.2,0.9C685.1,107.9,684.3,107.6,683.7,107z M688.2,112.4v27.8h-4.7
				v-27.8H688.2z"/>
			<path class="st3" d="M702.7,113.6c1.8-1.1,4-1.6,6.4-1.6c2.5,0,4.8,0.6,6.8,1.8c2,1.2,3.6,2.9,4.8,5c1.2,2.1,1.7,4.6,1.7,7.5
				c0,2.8-0.6,5.3-1.7,7.5c-1.2,2.2-2.8,3.9-4.8,5.1c-2,1.2-4.3,1.8-6.8,1.8c-2.4,0-4.5-0.5-6.3-1.6c-1.8-1.1-3.2-2.4-4.2-4v18.3
				h-4.7v-41h4.7v5.1C699.5,116,700.9,114.6,702.7,113.6z M716.4,120.7c-0.9-1.6-2-2.7-3.5-3.6c-1.5-0.8-3-1.2-4.8-1.2
				c-1.7,0-3.3,0.4-4.7,1.2c-1.5,0.8-2.6,2-3.5,3.6c-0.9,1.6-1.3,3.4-1.3,5.5c0,2.1,0.4,3.9,1.3,5.5c0.9,1.6,2,2.8,3.5,3.6
				c1.5,0.8,3,1.2,4.7,1.2c1.7,0,3.3-0.4,4.8-1.2c1.5-0.8,2.6-2,3.5-3.6c0.9-1.6,1.3-3.4,1.3-5.6
				C717.7,124.1,717.2,122.3,716.4,120.7z"/>
		</g>
	</g>
	<g id="top">
		<polygon id="polygon558" class="st1" points="424,47.7 424,29 439.7,29 439.7,47.7 451.4,47.7 451.4,0 439.7,0 439.7,18.7 
			424,18.7 424,0 412.3,0 412.3,47.7 		"/>
		<polygon id="polygon560" class="st1" points="469,47.7 469,29 484.6,29 484.6,47.7 496.4,47.7 496.4,0 484.6,0 484.6,18.7 
			469,18.7 469,0 457.3,0 457.3,47.7 		"/>
		<path id="path562" class="st1" d="M386.9,48.3c10.8,0,19.6-8.6,19.6-19.2V0h-11.7v29.1c0,4.3-3.6,7.8-7.9,7.8
			c-4.3,0-7.9-3.5-7.9-7.8V0h-11.7v29.1C367.4,39.7,376.1,48.3,386.9,48.3z"/>
		<polygon id="polygon556" class="st1" points="362.7,10.2 362.7,0 323.5,0 323.5,10.2 337.2,10.2 337.2,47.7 349,47.7 349,10.2 		
			"/>
	</g>
</g>
<g id="logo">
	<polygon class="st1" points="154.5,0 0,0 0,41.6 79.8,41.6 79.8,199.6 121.7,199.6 121.7,41.6 154.5,41.6 	"/>
	<rect id="rect572" x="206.6" class="st3" width="75.5" height="41.6"/>
	<rect id="rect574" x="206.6" y="158.1" class="st3" width="75.5" height="41.6"/>
	<rect id="rect576" x="206.6" y="80.8" class="st3" width="75.5" height="41.6"/>
	<rect id="rect578" x="159.5" class="st3" width="42" height="41.6"/>
	<rect id="rect568" x="159.5" y="46.7" class="st3" width="42" height="153"/>
</g>
<g id="gears">
	<g id="numbers">
		<path class="st2" d="M28.7,143.7c0.9-1.5,2.5-2.2,4.7-2.2c2.2,0,3.8,0.7,4.7,2.2s1.4,3.5,1.4,6.2c0,2.6-0.5,4.7-1.4,6.2
			s-2.5,2.3-4.7,2.3c-2.2,0-3.8-0.8-4.7-2.3c-0.9-1.5-1.4-3.6-1.4-6.2C27.3,147.3,27.8,145.2,28.7,143.7z M36.2,147.1
			c-0.1-0.8-0.4-1.4-0.9-1.9c-0.4-0.5-1.1-0.7-1.9-0.7c-0.9,0-1.5,0.2-1.9,0.7c-0.4,0.5-0.7,1.1-0.9,1.9c-0.1,0.8-0.2,1.7-0.2,2.8
			c0,1.2,0.1,2.1,0.2,2.9s0.4,1.4,0.9,1.9c0.4,0.5,1.1,0.7,1.9,0.7c0.8,0,1.5-0.2,1.9-0.7c0.4-0.5,0.7-1.1,0.9-1.9s0.2-1.7,0.2-2.9
			C36.5,148.8,36.4,147.8,36.2,147.1z"/>
		<path class="st2" d="M46.6,144.8v-2.9h5.5v16.6h-3.3v-13.7H46.6z"/>
		<path class="st2" d="M26.9,163V160h5.5v16.6h-3.3V163H26.9z"/>
		<path class="st2" d="M42,162c0.9-1.5,2.5-2.2,4.7-2.2c2.2,0,3.8,0.7,4.7,2.2s1.4,3.5,1.4,6.2c0,2.6-0.5,4.7-1.4,6.2
			s-2.5,2.3-4.7,2.3c-2.2,0-3.8-0.8-4.7-2.3c-0.9-1.5-1.4-3.6-1.4-6.2C40.6,165.5,41,163.4,42,162z M49.5,165.3
			c-0.1-0.8-0.4-1.4-0.9-1.9c-0.4-0.5-1.1-0.7-1.9-0.7c-0.9,0-1.5,0.2-1.9,0.7c-0.4,0.5-0.7,1.1-0.9,1.9c-0.1,0.8-0.2,1.7-0.2,2.8
			c0,1.2,0.1,2.1,0.2,2.9s0.4,1.4,0.9,1.9c0.4,0.5,1.1,0.7,1.9,0.7c0.8,0,1.5-0.2,1.9-0.7c0.4-0.5,0.7-1.1,0.9-1.9s0.2-1.7,0.2-2.9
			C49.7,167,49.6,166.1,49.5,165.3z"/>
	</g>
	<path class="st2" d="M120.7,120.1l-6.5-0.9c-0.2-0.5-0.4-1.1-0.6-1.6l4.1-5.2c0.5-0.7,0.5-1.7-0.1-2.3l-6.1-6.3
		c-0.6-0.6-1.6-0.7-2.3-0.2l-5.2,4c-0.5-0.2-1-0.5-1.6-0.7l-0.7-6.6c-0.1-0.9-0.8-1.5-1.7-1.5L91.4,99c-0.9,0-1.6,0.6-1.7,1.5
		l-0.9,6.5c-0.5,0.2-1.1,0.4-1.6,0.6l-5.1-4.1c-0.7-0.5-1.6-0.5-2.3,0.1l-6.2,6.1c-0.6,0.6-0.7,1.6-0.2,2.3l4,5.2
		c-0.2,0.5-0.5,1.1-0.7,1.6l-6.5,0.7c-0.9,0.1-1.5,0.8-1.5,1.7l-0.1,8.8c0,0.9,0.6,1.6,1.5,1.7l6.5,0.9c0.2,0.5,0.4,1.1,0.6,1.6
		l-4.1,5.2c-0.5,0.7-0.5,1.7,0.1,2.3l6.1,6.2c0.6,0.6,1.6,0.7,2.3,0.2l5.2-4c0.5,0.2,1,0.5,1.6,0.7l0.7,6.6c0.1,0.9,0.8,1.5,1.7,1.5
		l8.6,0.1c0.9,0,1.6-0.6,1.7-1.5l0.9-6.5c0.5-0.2,1.1-0.4,1.6-0.6l5.1,4.1c0.7,0.5,1.6,0.5,2.3-0.1l6.2-6.1c0.6-0.6,0.7-1.6,0.2-2.3
		l-4-5.2c0.2-0.5,0.5-1.1,0.7-1.6l6.5-0.7c0.9-0.1,1.5-0.8,1.5-1.7l0.1-8.8C122.2,121,121.5,120.3,120.7,120.1z M95.4,133.4
		c-4.1,0-7.4-3.3-7.4-7.4c0-4.1,3.3-7.4,7.4-7.4c4.1,0,7.4,3.3,7.4,7.4C102.8,130.1,99.5,133.4,95.4,133.4z"/>
	<path class="st2" d="M78.2,151.2L68,149.8c-0.4-1.1-0.8-2.1-1.2-3.1l6.4-8.2c0.6-0.8,0.6-1.9-0.1-2.6l-9.2-9.5
		c-0.7-0.7-1.8-0.8-2.6-0.2l-8.2,6.3c-1-0.5-2-0.9-3.1-1.3l-1.2-10.4c-0.1-1-0.9-1.7-1.9-1.7L33.8,119c-1,0-1.8,0.7-1.9,1.7
		l-1.4,10.3c-1.1,0.4-2.1,0.8-3.1,1.3l-8.1-6.5c-0.8-0.6-1.9-0.6-2.6,0.1l-9.4,9.3c-0.7,0.7-0.8,1.8-0.2,2.6l6.3,8.3
		c-0.5,1-0.9,2-1.3,3.1l-10.2,1.2c-1,0.1-1.7,0.9-1.7,1.9L0,165.7c0,1,0.7,1.8,1.7,2l10.2,1.4c0.4,1.1,0.8,2.1,1.2,3.1l-6.4,8.2
		c-0.6,0.8-0.6,1.9,0.1,2.6l9.2,9.5c0.7,0.7,1.8,0.8,2.6,0.2l8.2-6.3c1,0.5,2,0.9,3.1,1.3l1.2,10.4c0.1,1,0.9,1.7,1.9,1.7l13.1,0.1
		c1,0,1.8-0.7,1.9-1.7l1.4-10.3c1.1-0.4,2.1-0.8,3.1-1.3l8.1,6.5c0.8,0.6,1.9,0.6,2.6-0.1l9.4-9.3c0.7-0.7,0.8-1.8,0.2-2.6l-6.3-8.3
		c0.5-1,0.9-2,1.3-3.1l10.2-1.2c1-0.1,1.7-0.9,1.7-1.9l0.1-13.3C79.9,152.2,79.2,151.3,78.2,151.2z M39.7,181.4
		c-28.8-0.4-28.3-44.7,0.4-44.5C68.9,137.3,68.5,181.5,39.7,181.4z"/>
</g>
</svg>